<?xml version="1.0" standalone="no"?>
<!DOCTYPE svg PUBLIC "-//W3C//DTD SVG 20010904//EN"
 "http://www.w3.org/TR/2001/REC-SVG-20010904/DTD/svg10.dtd">
<svg version="1.0" xmlns="http://www.w3.org/2000/svg"
 width="500.000000pt" height="500.000000pt" viewBox="0 0 500.000000 500.000000"
 preserveAspectRatio="xMidYMid meet">
<metadata>
Created by potrace 1.11, written by Peter Selinger 2001-2013
</metadata>
<g transform="translate(0.000000,500.000000) scale(0.100000,-0.100000)"
fill="#000000" stroke="none">
<path d="M900 4602 c-7 -3 -10 -311 -10 -898 l0 -894 395 0 395 0 0 898 0 897
-385 0 c-212 0 -390 -1 -395 -3z"/>
<path d="M2729 3648 c0 -13 -1 -60 -1 -105 l0 -81 -87 2 c-47 1 -92 0 -98 -2
-9 -3 -13 -30 -13 -88 l0 -84 99 0 98 0 1 -227 c0 -126 1 -234 1 -240 1 -9 25
-13 86 -13 l85 0 0 33 c1 17 0 125 0 239 l-1 207 133 3 133 3 2 83 c1 56 -2
82 -10 83 -7 1 -66 2 -132 3 l-120 1 -2 25 c0 14 -1 60 -2 103 l-1 77 -85 0
c-81 0 -85 -1 -86 -22z"/>
<path d="M1801 3458 c-49 -18 -51 -33 -51 -350 l0 -298 88 0 87 0 -1 241 0
240 153 -3 153 -3 32 -33 33 -32 3 -206 3 -205 87 3 87 3 -1 215 c-1 200 -3
219 -24 268 -28 65 -94 125 -163 148 -41 14 -92 17 -259 18 -115 1 -217 -2
-227 -6z"/>
<path d="M3409 3459 c-69 -11 -120 -51 -150 -117 -18 -38 -20 -65 -20 -200 0
-87 4 -172 10 -189 16 -53 48 -90 103 -117 50 -25 59 -26 220 -26 92 0 168 3
169 8 4 33 3 152 -1 153 -3 1 -71 2 -153 3 -189 3 -182 -4 -183 157 -2 171 -6
167 181 168 171 2 214 -12 199 -64 -12 -40 -31 -45 -185 -45 -169 0 -158 7
-149 -105 l5 -61 170 1 c188 1 217 8 271 64 78 80 74 242 -8 318 -50 47 -91
55 -274 57 -94 0 -186 -2 -205 -5z"/>
<path d="M4220 3462 c-89 -11 -171 -78 -185 -154 -4 -18 -7 -280 -6 -430 l1
-68 85 0 85 0 0 223 c0 204 2 225 18 240 16 15 45 17 200 17 l180 0 4 81 c2
45 -1 83 -6 86 -9 6 -333 10 -376 5z"/>
<path d="M892 1443 l0 -738 23 -68 c36 -104 105 -180 210 -229 l50 -23 1713
-3 1712 -2 0 390 0 390 -37 1 c-21 0 -679 1 -1463 2 l-1425 2 0 505 -1 505
-391 3 -392 2 1 -737z"/>
<path d="M1870 2152 c-6 -2 -10 -39 -10 -82 l0 -79 186 -3 c170 -3 187 -5 200
-22 10 -15 14 -52 14 -141 0 -163 5 -158 -181 -160 -102 0 -149 3 -170 14 -32
15 -38 45 -15 76 13 18 28 19 167 20 l153 0 1 80 0 80 -173 3 c-169 2 -174 2
-220 -23 -150 -82 -150 -310 1 -392 27 -15 64 -19 223 -21 213 -4 256 3 308
49 59 52 71 100 70 289 0 135 -3 171 -17 197 -24 44 -54 72 -106 95 -39 18
-68 21 -233 22 -103 0 -193 0 -198 -2z"/>
<path d="M2534 2151 c-2 -2 -4 -114 -4 -248 0 -264 4 -286 56 -338 55 -55 91
-63 279 -65 l171 -1 1 81 c0 44 -3 83 -8 86 -5 3 -71 5 -148 5 -101 0 -144 4
-157 14 -17 12 -19 34 -24 241 l-5 228 -78 1 c-43 0 -81 -2 -83 -4z"/>
<path d="M3087 2148 c-7 -4 -10 -120 -10 -362 0 -329 -1 -357 -18 -372 -15
-13 -45 -16 -166 -18 l-148 -1 0 -85 0 -85 171 1 c156 0 174 2 217 23 51 25
88 66 106 120 7 23 11 155 11 410 l0 376 -76 0 c-42 0 -81 -3 -87 -7z"/>
</g>
</svg>
