<?xml version="1.0" encoding="UTF-8" standalone="no"?>
<svg
   xmlns:dc="http://purl.org/dc/elements/1.1/"
   xmlns:cc="http://creativecommons.org/ns#"
   xmlns:rdf="http://www.w3.org/1999/02/22-rdf-syntax-ns#"
   xmlns:svg="http://www.w3.org/2000/svg"
   xmlns="http://www.w3.org/2000/svg"
   xmlns:sodipodi="http://sodipodi.sourceforge.net/DTD/sodipodi-0.dtd"
   xmlns:inkscape="http://www.inkscape.org/namespaces/inkscape"
   version="1.1"
   id="Layer_1"
   x="0px"
   y="0px"
   viewBox="0 0 440.60202 99.534119"
   xml:space="preserve"
   sodipodi:docname="polkadot.svg"
   width="440.60202"
   height="99.534119"
   inkscape:version="1.0.1 (0767f8302a, 2020-10-17)"><metadata
   id="metadata17"><rdf:RDF><cc:Work
       rdf:about=""><dc:format>image/svg+xml</dc:format><dc:type
         rdf:resource="http://purl.org/dc/dcmitype/StillImage" /><dc:title></dc:title></cc:Work></rdf:RDF></metadata><defs
   id="defs15" /><sodipodi:namedview
   pagecolor="#ffffff"
   bordercolor="#666666"
   borderopacity="1"
   objecttolerance="10"
   gridtolerance="10"
   guidetolerance="10"
   inkscape:pageopacity="0"
   inkscape:pageshadow="2"
   inkscape:window-width="1920"
   inkscape:window-height="1043"
   id="namedview13"
   showgrid="false"
   inkscape:zoom="1.5509209"
   inkscape:cx="195.37165"
   inkscape:cy="22.127729"
   inkscape:window-x="1920"
   inkscape:window-y="0"
   inkscape:window-maximized="1"
   inkscape:current-layer="Layer_1" />
<style
   type="text/css"
   id="style2">
	.st0{fill:#E6007A;}
</style>
<g
   id="g8"
   transform="translate(-79.7,-100.3)">
	<g
   id="g6">
		<path
   d="m 182.9,141.8 c -8.5,0 -15.5,3.5 -21.1,10.6 -5.6,7 -8.4,15.3 -8.4,24.6 0,6.4 1.8,11.6 5.3,15.6 3.5,4 8.2,6 14.1,6 7.9,0 14.6,-3.3 20.2,-9.9 3.7,-4.8 5.2,-7.7 6,-9.8 2.1,-5.1 3.1,-10.4 3.1,-15.7 0,-6.3 -1.5,-11.4 -4.5,-15.4 -3,-4 -8,-6 -14.7,-6 z m 0.3,42.2 c -2.9,2.9 -6.3,4.4 -10.1,4.4 -2.8,0 -5.1,-1 -6.7,-3 -1.6,-2 -2.4,-4.8 -2.4,-8.3 0,-7 1.7,-12.9 5.2,-17.7 3.4,-4.8 7.8,-7.2 13.1,-7.2 6,0 8.9,3.6 8.9,10.9 0.1,10.7 -5,17.9 -8,20.9 z m 321,-15.9 c -2.5,-0.8 -5.3,0.4 -6.3,2.9 -4.6,11.5 -10.3,17.3 -17.3,17.3 -3.6,0 -5.4,-3.1 -5.4,-9.2 0,-3.4 1,-10.1 3,-20 l 1.5,-7 h 14.2 c 2.4,0 4.6,-1.7 5,-4.1 0.7,-3.2 -1.8,-6.2 -5,-6.2 H 482 l 2.5,-11.6 c 0.7,-3.3 -1.8,-6.4 -5.2,-6.4 -2.5,0 -4.6,1.7 -5.2,4.2 l -3,13.8 H 438 v 0 c 0,0 -0.1,0 -0.1,0 -8.5,0 -15.5,3.5 -21.1,10.6 -5.6,7 -8.4,15.3 -8.4,24.6 0,2.6 0.3,4.9 0.9,7.1 -2.7,2.8 -5.6,4.2 -8.7,4.2 -2.1,0 -3.6,-0.6 -4.5,-1.8 -0.9,-1.2 -1.4,-3.2 -1.4,-6 0,-4 0.8,-9.9 2.5,-17.7 l 8.7,-40.2 c 0.7,-3.3 -1.8,-6.4 -5.2,-6.4 -2.5,0 -4.7,1.8 -5.2,4.2 l -5.2,24.5 c -3.7,-2.1 -7.5,-3.1 -11.6,-3.1 -8.6,0 -15.8,3.3 -21.6,10 -5.7,6.7 -8.6,15.1 -8.6,25.2 0,3.2 0.4,6 1.2,8.6 -2.3,1.9 -4.7,2.8 -7.3,2.8 -2.1,0 -3.6,-0.6 -4.7,-1.8 -1,-1.2 -1.5,-3.2 -1.5,-6 0,-2.5 0.5,-6.4 1.6,-11.9 0.6,-3.1 -1.6,-6.1 -4.8,-6.4 -2.6,-0.3 -5.1,1.4 -5.8,3.9 -2,6.9 -4.5,12.2 -7.3,15.8 -3.4,4.3 -7.1,6.5 -11,6.5 -2.3,0 -4.2,-1.1 -5.7,-3.3 -1.4,-2.2 -2.1,-5.1 -2.1,-8.6 0,-7.1 1.7,-13 5.2,-17.5 3.5,-4.6 8,-6.9 13.6,-6.9 2.8,0 5.6,0.6 8,1.6 1.5,0.6 3.3,0.6 4.7,-0.3 3.6,-2.2 3.2,-7.6 -0.6,-9.1 -2.1,-0.9 -3.2,-1.1 -4.1,-1.3 -2.4,-0.6 -5.4,-1.1 -7.8,-1.1 -8.5,0.1 -15.7,3.4 -21.4,10 -3.1,3.6 -5.4,7.7 -6.8,12.3 0,0 0,0 0,0 -5,16.2 -11.6,24.3 -19.5,24.3 -2.7,0 -4.7,-0.9 -5.9,-2.6 -1.3,-1.7 -1.9,-3.9 -1.9,-6.5 0,-0.9 0,-1.6 0.1,-2.1 5,-2 9.1,-5.1 12.1,-9.2 3,-4.1 4.6,-8.7 4.6,-13.6 0,-8.3 -4.5,-12.4 -13.6,-12.4 -6.4,0 -12,2.3 -17,6.9 l 5.6,-26.2 c 0.7,-3.3 -1.8,-6.3 -5.1,-6.3 -2.5,0 -4.6,1.7 -5.1,4.2 l -15.4,72 c -0.7,3.3 1.8,6.3 5.1,6.3 v 0 c 2.5,0 4.6,-1.7 5.1,-4.1 l 4.8,-22 c 0.8,-2.8 1.9,-5.7 3.4,-8.5 1.5,-2.8 3.8,-5.5 7,-8 3.1,-2.6 6.6,-3.8 10.5,-3.8 2.6,0 3.9,1.3 3.9,4 0,3 -1.7,6 -5,8.8 -3.3,2.8 -6.9,4.6 -10.7,5.2 -0.3,3.2 -0.5,5.4 -0.5,6.8 0,6.7 1.5,12 4.5,15.9 3,3.9 7.4,5.8 13.3,5.8 6.9,0 12.9,-3 18,-8.9 0.7,-0.8 1.3,-1.6 2,-2.5 0.8,2 1.8,3.8 3.1,5.3 3.3,4 7.7,6 13.3,6 7.1,0 13.1,-3.4 18,-10.3 2.1,6.9 7.2,10.3 15.5,10.3 4.7,0 8.9,-1.5 12.8,-4.5 3.1,3 7.1,4.5 11.9,4.5 7.1,0 13.1,-3.4 18,-10.3 2.1,6.9 7.2,10.3 15.5,10.3 5.3,0 10,-1.8 14.1,-5.4 3.5,3.6 7.9,5.4 13.5,5.4 7.9,0 14.6,-3.3 20.2,-9.9 3.7,-4.8 5.2,-7.7 6,-9.8 2.1,-5.1 3.1,-10.4 3.1,-15.7 0,-4.2 -0.7,-7.9 -2,-11.1 h 13.7 l -1.3,6 c -2.2,10.3 -3.3,17.3 -3.3,21 0,13 5.3,19.5 15.8,19.5 11.7,0 20.7,-7.9 27.1,-23.8 1.2,-3.1 -0.2,-6.2 -3,-7.2 z m -117.6,-6.4 c -1.9,9.1 -4.7,15.8 -8.2,20.1 -3.5,4.3 -7.3,6.5 -11.3,6.5 -2.3,0 -4.2,-1.1 -5.7,-3.3 -1.4,-2.2 -2.1,-5.1 -2.1,-8.6 0,-7.1 1.7,-13 5.2,-17.5 3.5,-4.6 8,-6.9 13.6,-6.9 3,0 6.2,1.3 9.7,4 z m 57.8,12.6 c 0,0 -3.1,6.7 -6,9.7 -2.9,2.9 -6.3,4.4 -10.1,4.4 -2.8,0 -5.1,-1 -6.7,-3 -1.6,-2 -2.4,-4.8 -2.4,-8.3 0,-7 1.7,-12.9 5.2,-17.7 3.5,-4.8 7.8,-7.2 13.1,-7.2 6,0 8.9,3.6 8.9,10.9 0,3.6 -0.6,7.3 -2,11.2 z M 227.8,116.2 c -2.5,0 -4.6,1.7 -5.1,4.2 l -15.4,72 c -0.7,3.3 1.8,6.3 5.1,6.3 2.5,0 4.6,-1.7 5.1,-4.1 l 15.5,-72 c 0.7,-3.3 -1.8,-6.4 -5.2,-6.4 z M 117.5,100.3 c -20.8,0 -37.8,16.9 -37.8,37.8 0,4.2 0.7,8.3 2,12.3 0.9,2.7 3.9,4.2 6.7,3.3 2.7,-0.9 4.2,-3.9 3.3,-6.7 -1.1,-3.1 -1.6,-6.4 -1.5,-9.7 0.4,-14.1 11.8,-25.7 25.9,-26.4 15.7,-0.8 28.7,11.7 28.7,27.2 0,14.5 -11.4,26.4 -25.7,27.2 0,0 -5.3,0.3 -7.9,0.7 -1.3,0.2 -2.3,0.4 -3,0.5 -0.3,0.1 -0.6,-0.2 -0.5,-0.5 l 0.9,-4.4 4.8,-22.5 c 0.6,-2.8 -1.2,-5.6 -4,-6.2 -2.8,-0.6 -5.6,1.2 -6.2,4 0,0 -11.8,55 -11.9,55.6 -0.6,2.8 1.2,5.6 4,6.2 2.8,0.6 5.6,-1.2 6.2,-4 0.1,-0.6 1.7,-7.9 1.7,-7.9 1.2,-5.6 5.8,-9.7 11.2,-10.4 1.2,-0.2 5.9,-0.5 5.9,-0.5 19.5,-1.5 34.9,-17.8 34.9,-37.7 0.1,-21 -16.8,-37.9 -37.7,-37.9 z"
   id="path4" />
	</g>
</g>
<path
   class="st0"
   d="m 435.6,87 c -3.4,-0.7 -6.7,1.4 -7.5,4.9 -0.7,3.4 1.4,6.8 4.9,7.5 3.5,0.7 6.8,-1.4 7.5,-4.9 0.6,-3.5 -1.5,-6.8 -4.9,-7.5 z"
   id="path10" />
</svg>
